<?xml version="1.0" standalone="no"?>
<!DOCTYPE svg PUBLIC "-//W3C//DTD SVG 20010904//EN"
 "http://www.w3.org/TR/2001/REC-SVG-20010904/DTD/svg10.dtd">
<svg version="1.0" xmlns="http://www.w3.org/2000/svg"
 width="1280.000000pt" height="720.000000pt" viewBox="0 0 1280.000000 720.000000"
 preserveAspectRatio="xMidYMid meet">
<metadata>
Created by potrace 1.16, written by Peter Selinger 2001-2019
</metadata>
<g transform="translate(0.000000,720.000000) scale(0.100000,-0.100000)"
fill="#000000" stroke="none">
<path d="M11805 5395 c-109 -12 -211 -43 -283 -85 -18 -11 -39 -20 -45 -20
-16 0 -140 -98 -200 -157 -113 -113 -206 -297 -237 -469 -17 -96 -8 -287 19
-379 40 -141 96 -262 135 -294 9 -7 16 -19 16 -25 0 -19 141 -150 215 -199
148 -99 417 -170 577 -152 115 13 187 27 197 38 5 7 104 190 219 407 115 217
248 468 296 556 75 142 86 168 86 212 0 28 -5 63 -11 79 -17 46 -114 185 -161
230 -69 66 -181 153 -200 153 -9 0 -19 4 -22 9 -3 5 -45 25 -92 46 -74 31
-107 39 -218 51 -149 16 -143 16 -291 -1z m303 -380 c342 -102 466 -572 226
-858 -31 -37 -61 -67 -66 -67 -5 0 -24 -11 -42 -25 -17 -13 -58 -36 -90 -50
-52 -23 -71 -26 -183 -26 -113 0 -129 3 -186 28 -77 34 -107 54 -170 118 -66
68 -89 105 -122 205 -95 284 49 594 313 675 107 33 212 33 320 0z"/>
<path d="M6264 5313 c-20 -43 -42 -95 -50 -116 -14 -40 -75 -182 -155 -362
-27 -60 -49 -114 -49 -120 0 -5 -18 -47 -39 -91 -22 -45 -46 -102 -55 -127 -8
-24 -35 -88 -60 -141 -26 -54 -46 -102 -46 -107 0 -10 -23 -63 -76 -175 -13
-28 -24 -56 -24 -62 0 -5 -16 -45 -36 -88 -20 -43 -52 -116 -71 -163 -19 -47
-37 -92 -40 -98 -4 -10 40 -13 200 -13 186 0 205 2 210 18 21 65 50 138 81
205 20 44 40 97 46 118 l11 39 358 0 358 0 11 -22 c29 -59 72 -162 72 -173 0
-7 18 -52 40 -99 l39 -86 206 0 c113 0 205 2 205 4 0 6 -30 76 -66 154 -19 41
-34 78 -34 83 0 6 -16 45 -36 87 -52 111 -62 134 -70 162 -4 14 -27 67 -50
118 -24 50 -44 96 -44 102 0 5 -22 58 -50 118 -27 60 -50 113 -50 117 0 4 -22
58 -49 119 -84 190 -148 340 -155 361 -4 11 -27 65 -51 120 -24 55 -51 121
-61 148 l-17 47 -184 0 -184 0 -35 -77z m241 -478 c16 -48 62 -159 91 -219 8
-16 14 -34 14 -40 0 -13 65 -164 74 -173 19 -19 -14 -23 -208 -23 l-214 0 20
53 c12 28 43 104 70 168 26 64 48 119 48 123 0 20 75 175 81 169 4 -5 15 -30
24 -58z"/>
<path d="M1522 5368 c-17 -22 -172 -315 -172 -327 0 -7 40 -11 125 -11 69 0
125 -3 125 -6 0 -3 -18 -24 -39 -47 -45 -48 -80 -88 -294 -339 -64 -76 -126
-148 -137 -160 -11 -13 -45 -52 -76 -88 -30 -36 -65 -76 -78 -90 -43 -48 -103
-147 -199 -327 -96 -180 -97 -182 -97 -252 l0 -71 720 0 720 0 0 170 0 170
-465 2 -466 3 58 66 c32 37 87 101 123 144 36 42 77 91 93 109 52 58 142 162
184 212 74 87 256 299 343 399 140 161 130 137 130 307 l0 148 -294 0 c-223 0
-296 -3 -304 -12z"/>
<path d="M2470 4515 l0 -865 665 0 665 0 0 170 0 170 -470 0 -470 0 0 175 0
175 408 2 407 3 3 173 2 172 -410 0 -410 0 0 170 0 170 465 0 465 0 0 175 0
175 -660 0 -660 0 0 -865z"/>
<path d="M3963 5363 c6 -20 28 -75 98 -245 27 -64 49 -121 49 -127 0 -6 23
-62 50 -123 28 -61 50 -117 50 -123 0 -6 22 -63 50 -126 27 -62 50 -119 50
-125 0 -7 23 -63 50 -125 28 -62 50 -118 50 -124 0 -6 23 -62 50 -124 28 -62
50 -118 50 -123 0 -8 29 -78 76 -183 13 -29 50 -132 61 -168 5 -16 20 -17 180
-15 l174 3 50 114 c27 63 49 121 49 128 0 7 4 21 10 31 17 30 90 202 90 213 0
6 23 62 50 125 28 63 50 119 50 124 0 9 47 124 151 372 27 64 49 120 49 125 0
5 23 61 50 125 28 64 50 121 50 126 0 6 23 62 50 125 28 63 50 120 50 126 0 8
-63 11 -212 11 l-213 0 -32 -85 c-18 -47 -33 -90 -33 -95 0 -6 -22 -65 -48
-133 -27 -67 -58 -149 -70 -182 -28 -81 -75 -205 -133 -356 -27 -69 -49 -130
-49 -136 0 -5 -17 -53 -38 -107 l-39 -97 -15 43 c-8 24 -32 88 -53 143 -21 55
-44 120 -53 145 -8 25 -37 101 -63 170 -99 263 -112 298 -144 390 -18 52 -49
135 -69 183 -20 48 -36 95 -36 103 0 12 -35 14 -221 14 -206 0 -221 -1 -216
-17z"/>
<path d="M7650 4515 l0 -865 625 0 625 0 0 175 0 175 -425 0 -425 0 0 690 0
690 -200 0 -200 0 0 -865z"/>
<path d="M9180 4515 l0 -866 428 3 427 3 105 29 c126 34 263 105 357 187 59
51 161 179 190 239 114 239 123 499 25 743 -45 110 -107 201 -195 282 -96 89
-152 125 -255 167 -184 74 -170 72 -649 76 l-433 3 0 -866z m806 490 c49 -9
98 -27 133 -47 69 -40 178 -150 191 -192 5 -17 18 -57 30 -89 44 -125 34 -273
-29 -407 -58 -125 -169 -210 -327 -250 -61 -16 -111 -20 -241 -20 l-163 0 0
510 0 510 164 0 c104 0 193 -5 242 -15z"/>
<path d="M6670 3530 c-36 -4 -85 -13 -110 -20 -25 -6 -65 -15 -89 -21 -39 -8
-71 -23 -209 -100 -59 -32 -218 -193 -253 -254 -114 -204 -134 -276 -134 -495
0 -118 4 -173 19 -230 29 -119 34 -130 89 -230 98 -178 279 -326 472 -384 127
-39 201 -49 340 -49 237 2 468 78 659 218 l66 49 0 383 0 383 -380 0 -380 0 0
-170 0 -170 190 0 190 0 0 -119 0 -118 -72 -36 c-81 -39 -199 -67 -280 -67
-133 1 -274 64 -364 163 -80 87 -112 155 -131 275 -13 82 -14 111 -3 187 14
102 31 148 88 233 66 96 172 172 281 202 146 39 360 -12 489 -117 30 -24 60
-43 67 -41 7 2 66 68 131 147 l118 144 -50 43 c-27 24 -58 47 -69 50 -11 4
-27 12 -35 19 -96 85 -439 151 -640 125z"/>
<path d="M3955 3514 c-33 -8 -76 -19 -95 -23 -31 -7 -122 -55 -153 -81 -7 -6
-24 -19 -39 -30 -30 -23 -77 -89 -112 -159 -65 -128 -62 -324 7 -454 70 -134
217 -223 467 -283 41 -10 131 -37 199 -60 136 -47 177 -76 190 -135 25 -113
-70 -192 -229 -191 -76 1 -149 13 -205 34 -45 17 -179 80 -185 87 -14 18 -110
81 -123 81 -8 0 -28 -16 -44 -35 -15 -20 -49 -59 -75 -88 -26 -29 -48 -56 -48
-60 0 -4 -16 -24 -36 -43 -37 -38 -39 -51 -9 -68 11 -6 38 -27 61 -46 23 -19
93 -61 155 -93 186 -93 421 -135 618 -108 116 15 241 56 291 94 24 17 54 39
67 48 14 9 36 34 51 55 14 22 29 41 33 44 20 14 58 123 69 198 16 106 0 243
-37 316 -61 120 -225 228 -429 281 -53 14 -144 41 -202 60 -57 19 -108 35
-113 35 -21 0 -91 53 -110 83 -30 48 -21 106 22 146 54 49 91 62 174 62 86 0
128 -10 244 -58 90 -37 118 -53 164 -90 39 -31 52 -29 71 12 9 19 23 40 30 48
18 17 135 192 141 209 12 36 -241 168 -381 199 -130 28 -344 35 -429 13z"/>
<path d="M410 3284 c-171 -324 -207 -392 -311 -584 l-94 -175 -3 -372 -3 -373
398 0 c380 0 501 8 597 36 54 16 246 117 285 151 123 104 183 183 244 318 50
112 68 183 74 305 8 154 -25 326 -79 415 -10 16 -18 35 -18 42 0 7 -14 34 -32
60 -92 139 -213 242 -363 311 -147 66 -179 73 -390 79 l-190 5 -115 -218z
m450 -168 c131 -47 213 -118 268 -233 79 -168 80 -321 2 -486 -39 -84 -123
-169 -200 -204 -108 -49 -189 -63 -367 -63 l-163 0 0 511 0 511 193 -4 c177
-4 198 -7 267 -32z"/>
<path d="M1920 2640 l0 -860 665 0 665 0 0 170 0 170 -470 0 -470 0 0 175 0
175 408 2 407 3 3 173 2 172 -410 0 -410 0 0 170 0 170 465 0 465 0 0 170 0
170 -660 0 -660 0 0 -860z"/>
<path d="M5140 2640 l0 -860 200 0 200 0 0 860 0 860 -200 0 -200 0 0 -860z"/>
<path d="M7870 2640 l0 -860 195 0 195 0 0 531 0 532 25 -27 c14 -15 25 -30
25 -33 0 -3 17 -26 38 -51 20 -24 51 -63 67 -87 33 -48 176 -236 245 -324 25
-31 50 -64 55 -73 9 -14 34 -46 136 -175 23 -29 44 -53 48 -53 4 0 45 71 90
158 46 86 160 299 252 473 l169 316 0 267 0 266 -195 0 -195 0 -2 -512 c-3
-485 -4 -511 -20 -483 -9 17 -36 54 -60 82 -60 73 -88 109 -123 158 -16 23
-64 85 -105 139 -41 54 -93 122 -115 151 -22 30 -94 125 -160 211 -66 86 -133
176 -149 198 -16 23 -34 44 -40 48 -6 4 -93 8 -193 8 l-183 0 0 -860z"/>
</g>
</svg>
