<?xml version="1.0" standalone="no"?>
<!DOCTYPE svg PUBLIC "-//W3C//DTD SVG 20010904//EN"
 "http://www.w3.org/TR/2001/REC-SVG-20010904/DTD/svg10.dtd">
<svg version="1.0" xmlns="http://www.w3.org/2000/svg"
 width="900.000000pt" height="900.000000pt" viewBox="0 0 900.000000 900.000000"
 preserveAspectRatio="xMidYMid meet">
<metadata>
Created by potrace 1.10, written by Peter Selinger 2001-2011
</metadata>
<g transform="translate(0.000000,900.000000) scale(0.100000,-0.100000)"
fill="#000000" stroke="none">
<path d="M5409 8673 c-17 -22 -8 -6 -169 -308 -199 -374 -220 -415 -220 -430
0 -13 41 -15 302 -17 192 -2 303 -7 305 -13 2 -6 -158 -197 -354 -426 -197
-229 -470 -546 -607 -705 -136 -159 -258 -300 -270 -314 -249 -289 -437 -512
-453 -540 -28 -48 -72 -128 -128 -235 -26 -49 -60 -112 -75 -140 -15 -27 -53
-99 -85 -160 -32 -60 -76 -144 -98 -185 -23 -41 -58 -110 -79 -152 l-38 -77 0
-128 c0 -70 4 -134 8 -140 11 -18 3308 -19 3328 -2 11 9 14 78 14 366 0 225
-4 361 -10 374 -10 19 -33 19 -1090 19 -1023 0 -1080 1 -1080 18 0 14 217 276
374 452 17 19 58 67 91 105 33 39 62 72 65 75 3 3 44 50 90 105 46 55 87 102
90 105 5 5 121 139 884 1030 149 173 273 317 276 320 3 3 43 50 90 105 46 55
87 102 90 105 18 16 109 128 119 147 12 23 16 617 5 647 -6 14 -75 16 -684 16
-633 0 -678 -1 -691 -17z"/>
<path d="M3105 4320 c-12 -4 -36 -36 -54 -71 -18 -35 -46 -86 -61 -114 -15
-27 -51 -95 -80 -150 -29 -55 -73 -138 -98 -185 -25 -47 -62 -116 -82 -155
-62 -117 -131 -247 -160 -300 -15 -27 -50 -93 -78 -145 -27 -52 -66 -124 -86
-160 -19 -36 -54 -101 -77 -145 -51 -100 -99 -192 -168 -320 -50 -93 -80 -149
-183 -344 -22 -41 -54 -100 -71 -130 l-32 -56 0 -860 0 -860 860 -3 c964 -3
1008 -1 1275 64 205 51 268 73 435 153 148 71 229 121 359 219 396 298 669
766 737 1262 26 189 27 290 9 479 -19 191 -29 252 -57 356 -70 261 -172 470
-329 675 -254 332 -568 546 -1014 694 -116 38 -358 82 -530 95 -166 13 -485
14 -515 1z m580 -809 c286 -71 468 -164 616 -318 186 -192 267 -357 319 -648
54 -300 -1 -638 -141 -872 -199 -332 -509 -514 -944 -553 -163 -15 -758 -13
-773 2 -9 9 -12 288 -12 1194 0 650 3 1190 6 1199 6 15 44 16 443 12 297 -3
452 -8 486 -16z"/>
</g>
</svg>
